<svg width="24" height="24" viewBox="0 0 24 24" fill="none" xmlns="http://www.w3.org/2000/svg">
<path d="M19.2 0.300049H4.80003C2.30001 0.300049 0.300022 2.30004 0.300022 4.80006V19.2C0.300022 21.7001 2.30001 23.7 4.80003 23.7H19.2C21.7 23.7 23.7 21.7001 23.7 19.2V4.80004C23.7 2.30004 21.7 0.300049 19.2 0.300049ZM20.5 3.00005H21V7.00003H17V3.00005H20.5ZM8.70004 9.60006C9.40003 8.60004 10.7 7.90004 12 7.90004C13.3 7.90004 14.6 8.60004 15.3 9.60006C15.8 10.3 16.1 11.1 16.1 12C16.1 14.3 14.2 16.1 12 16.1C9.80003 16.1 7.90004 14.3 7.90004 12C7.90003 11.1 8.20003 10.3 8.70004 9.60006ZM21.4 19.2C21.4 20.4001 20.4 21.4 19.2 21.4H4.80003C3.60004 21.4 2.60002 20.4001 2.60002 19.2V9.60006H6.10002C5.80001 10.3 5.60003 11.2001 5.60003 12C5.60003 15.5 8.50003 18.4 12 18.4C15.5 18.4 18.4 15.5 18.4 12C18.4 11.2001 18.2 10.3 17.9 9.60006H21.4L21.4 19.2Z" fill="white"/>
</svg>
